<mxfile host="65bd71144e" pages="2">
    <diagram name="Page-1" id="uWeigdrOckjfOTDfEyCn">
        <mxGraphModel dx="1800" dy="1304" grid="1" gridSize="10" guides="1" tooltips="1" connect="1" arrows="1" fold="1" page="1" pageScale="1" pageWidth="1920" pageHeight="1200" math="0" shadow="0">
            <root>
                <mxCell id="0"/>
                <mxCell id="1" parent="0"/>
                <mxCell id="NJ33VyK1b0hzYCqqzVdu-1" value="&lt;font style=&quot;font-size: 24px;&quot;&gt;&lt;b&gt;HRI SYSTEM&lt;/b&gt;&lt;/font&gt;" style="text;html=1;align=center;verticalAlign=middle;whiteSpace=wrap;rounded=0;" parent="1" vertex="1">
                    <mxGeometry x="274" y="40" width="280" height="30" as="geometry"/>
                </mxCell>
                <mxCell id="NJ33VyK1b0hzYCqqzVdu-3" value="&lt;font size=&quot;3&quot;&gt;ROLE BASES&lt;/font&gt;" style="text;html=1;align=center;verticalAlign=middle;resizable=0;points=[];autosize=1;strokeColor=none;fillColor=none;" parent="1" vertex="1">
                    <mxGeometry y="88" width="120" height="30" as="geometry"/>
                </mxCell>
                <mxCell id="NJ33VyK1b0hzYCqqzVdu-4" value="&lt;font size=&quot;3&quot;&gt;FEATURE BASED&lt;/font&gt;" style="text;html=1;align=center;verticalAlign=middle;resizable=0;points=[];autosize=1;strokeColor=none;fillColor=none;" parent="1" vertex="1">
                    <mxGeometry y="130" width="160" height="30" as="geometry"/>
                </mxCell>
                <mxCell id="NJ33VyK1b0hzYCqqzVdu-6" value="&lt;font style=&quot;font-size: 14px;&quot;&gt;CHART&lt;/font&gt;" style="text;html=1;align=center;verticalAlign=middle;resizable=0;points=[];autosize=1;strokeColor=none;fillColor=none;" parent="1" vertex="1">
                    <mxGeometry y="198" width="70" height="30" as="geometry"/>
                </mxCell>
                <mxCell id="NJ33VyK1b0hzYCqqzVdu-9" value="" style="edgeStyle=orthogonalEdgeStyle;rounded=0;orthogonalLoop=1;jettySize=auto;html=1;" parent="1" source="NJ33VyK1b0hzYCqqzVdu-7" target="NJ33VyK1b0hzYCqqzVdu-8" edge="1">
                    <mxGeometry relative="1" as="geometry"/>
                </mxCell>
                <mxCell id="NJ33VyK1b0hzYCqqzVdu-11" value="" style="edgeStyle=orthogonalEdgeStyle;rounded=0;orthogonalLoop=1;jettySize=auto;html=1;" parent="1" source="NJ33VyK1b0hzYCqqzVdu-7" target="NJ33VyK1b0hzYCqqzVdu-10" edge="1">
                    <mxGeometry relative="1" as="geometry"/>
                </mxCell>
                <mxCell id="NJ33VyK1b0hzYCqqzVdu-7" value="&lt;font size=&quot;3&quot;&gt;SUPER ADMIN&lt;/font&gt;" style="whiteSpace=wrap;html=1;" parent="1" vertex="1">
                    <mxGeometry x="340" y="230" width="120" height="60" as="geometry"/>
                </mxCell>
                <mxCell id="NJ33VyK1b0hzYCqqzVdu-14" value="" style="edgeStyle=orthogonalEdgeStyle;rounded=0;orthogonalLoop=1;jettySize=auto;html=1;" parent="1" source="NJ33VyK1b0hzYCqqzVdu-8" target="NJ33VyK1b0hzYCqqzVdu-13" edge="1">
                    <mxGeometry relative="1" as="geometry">
                        <Array as="points">
                            <mxPoint x="120" y="470"/>
                        </Array>
                    </mxGeometry>
                </mxCell>
                <mxCell id="NJ33VyK1b0hzYCqqzVdu-8" value="&lt;font size=&quot;3&quot;&gt;CUSTOMER REP&lt;/font&gt;" style="whiteSpace=wrap;html=1;" parent="1" vertex="1">
                    <mxGeometry x="60" y="320" width="120" height="60" as="geometry"/>
                </mxCell>
                <mxCell id="NJ33VyK1b0hzYCqqzVdu-10" value="&lt;font size=&quot;3&quot;&gt;FIN OFFICER&lt;/font&gt;" style="whiteSpace=wrap;html=1;" parent="1" vertex="1">
                    <mxGeometry x="610" y="320" width="120" height="60" as="geometry"/>
                </mxCell>
                <mxCell id="NJ33VyK1b0hzYCqqzVdu-19" value="" style="edgeStyle=orthogonalEdgeStyle;rounded=0;orthogonalLoop=1;jettySize=auto;html=1;" parent="1" source="NJ33VyK1b0hzYCqqzVdu-13" target="NJ33VyK1b0hzYCqqzVdu-18" edge="1">
                    <mxGeometry relative="1" as="geometry"/>
                </mxCell>
                <mxCell id="NJ33VyK1b0hzYCqqzVdu-21" value="" style="edgeStyle=orthogonalEdgeStyle;rounded=0;orthogonalLoop=1;jettySize=auto;html=1;" parent="1" source="NJ33VyK1b0hzYCqqzVdu-13" target="NJ33VyK1b0hzYCqqzVdu-20" edge="1">
                    <mxGeometry relative="1" as="geometry"/>
                </mxCell>
                <mxCell id="NJ33VyK1b0hzYCqqzVdu-13" value="&lt;font size=&quot;3&quot;&gt;ORGANIZATION&lt;/font&gt;&lt;div&gt;&lt;font size=&quot;3&quot;&gt;(ORG)&lt;/font&gt;&lt;/div&gt;" style="whiteSpace=wrap;html=1;fillColor=#d5e8d4;strokeColor=#82b366;" parent="1" vertex="1">
                    <mxGeometry x="310" y="430" width="180" height="60" as="geometry"/>
                </mxCell>
                <mxCell id="NJ33VyK1b0hzYCqqzVdu-15" value="" style="endArrow=classic;startArrow=classic;html=1;rounded=0;exitX=1;exitY=0.75;exitDx=0;exitDy=0;entryX=0.75;entryY=1;entryDx=0;entryDy=0;" parent="1" source="NJ33VyK1b0hzYCqqzVdu-13" target="NJ33VyK1b0hzYCqqzVdu-10" edge="1">
                    <mxGeometry width="50" height="50" relative="1" as="geometry">
                        <mxPoint x="546" y="452" as="sourcePoint"/>
                        <mxPoint x="790" y="340" as="targetPoint"/>
                        <Array as="points">
                            <mxPoint x="700" y="475"/>
                        </Array>
                    </mxGeometry>
                </mxCell>
                <mxCell id="NJ33VyK1b0hzYCqqzVdu-23" value="" style="edgeStyle=orthogonalEdgeStyle;rounded=0;orthogonalLoop=1;jettySize=auto;html=1;" parent="1" source="NJ33VyK1b0hzYCqqzVdu-18" target="NJ33VyK1b0hzYCqqzVdu-22" edge="1">
                    <mxGeometry relative="1" as="geometry"/>
                </mxCell>
                <mxCell id="NJ33VyK1b0hzYCqqzVdu-25" value="" style="edgeStyle=orthogonalEdgeStyle;rounded=0;orthogonalLoop=1;jettySize=auto;html=1;" parent="1" source="NJ33VyK1b0hzYCqqzVdu-18" target="NJ33VyK1b0hzYCqqzVdu-24" edge="1">
                    <mxGeometry relative="1" as="geometry"/>
                </mxCell>
                <mxCell id="NJ33VyK1b0hzYCqqzVdu-18" value="&lt;font size=&quot;3&quot;&gt;ADMIN (ORG)&lt;/font&gt;" style="whiteSpace=wrap;html=1;fillColor=#d5e8d4;strokeColor=#82b366;" parent="1" vertex="1">
                    <mxGeometry x="170" y="560" width="180" height="60" as="geometry"/>
                </mxCell>
                <mxCell id="NJ33VyK1b0hzYCqqzVdu-32" value="" style="edgeStyle=orthogonalEdgeStyle;rounded=0;orthogonalLoop=1;jettySize=auto;html=1;" parent="1" source="NJ33VyK1b0hzYCqqzVdu-20" target="NJ33VyK1b0hzYCqqzVdu-31" edge="1">
                    <mxGeometry relative="1" as="geometry"/>
                </mxCell>
                <mxCell id="NJ33VyK1b0hzYCqqzVdu-20" value="&lt;font size=&quot;3&quot;&gt;EMPLOYEES (USERS)&lt;/font&gt;" style="whiteSpace=wrap;html=1;fillColor=#d5e8d4;strokeColor=#82b366;" parent="1" vertex="1">
                    <mxGeometry x="430" y="560" width="200" height="60" as="geometry"/>
                </mxCell>
                <mxCell id="NJ33VyK1b0hzYCqqzVdu-22" value="&lt;font size=&quot;3&quot;&gt;HR&lt;/font&gt;" style="whiteSpace=wrap;html=1;fillColor=#d5e8d4;strokeColor=#82b366;" parent="1" vertex="1">
                    <mxGeometry x="10" y="670" width="180" height="60" as="geometry"/>
                </mxCell>
                <mxCell id="NJ33VyK1b0hzYCqqzVdu-24" value="&lt;font size=&quot;3&quot;&gt;MANAGERS&lt;/font&gt;" style="whiteSpace=wrap;html=1;fillColor=#d5e8d4;strokeColor=#82b366;" parent="1" vertex="1">
                    <mxGeometry x="210" y="670" width="180" height="60" as="geometry"/>
                </mxCell>
                <mxCell id="NJ33VyK1b0hzYCqqzVdu-31" value="" style="ellipse;whiteSpace=wrap;html=1;fillColor=#d5e8d4;strokeColor=#82b366;" parent="1" vertex="1">
                    <mxGeometry x="540" y="660" width="80" height="80" as="geometry"/>
                </mxCell>
                <mxCell id="NJ33VyK1b0hzYCqqzVdu-33" value="Actor" style="shape=umlActor;verticalLabelPosition=bottom;verticalAlign=top;html=1;outlineConnect=0;" parent="1" vertex="1">
                    <mxGeometry x="565" y="680" width="30" height="40" as="geometry"/>
                </mxCell>
                <mxCell id="FFoYVPtMntlqUQjsiF4P-57" value="" style="group;fillColor=#60a917;strokeColor=#2D7600;fillStyle=auto;fontColor=#ffffff;" parent="1" vertex="1" connectable="0">
                    <mxGeometry x="920" y="80" width="290" height="260" as="geometry"/>
                </mxCell>
                <mxCell id="FFoYVPtMntlqUQjsiF4P-39" value="" style="whiteSpace=wrap;html=1;" parent="FFoYVPtMntlqUQjsiF4P-57" vertex="1">
                    <mxGeometry width="290" height="260" as="geometry"/>
                </mxCell>
                <mxCell id="FFoYVPtMntlqUQjsiF4P-40" value="&lt;font style=&quot;font-size: 18px;&quot;&gt;Super Admin Role&lt;/font&gt;" style="text;html=1;align=center;verticalAlign=middle;whiteSpace=wrap;rounded=0;labelBackgroundColor=none;" parent="FFoYVPtMntlqUQjsiF4P-57" vertex="1">
                    <mxGeometry x="10" y="8" width="270" height="30" as="geometry"/>
                </mxCell>
                <mxCell id="FFoYVPtMntlqUQjsiF4P-41" value="&lt;font style=&quot;font-size: 14px;&quot;&gt;Analytics&lt;/font&gt;" style="text;html=1;align=left;verticalAlign=middle;whiteSpace=wrap;rounded=0;" parent="FFoYVPtMntlqUQjsiF4P-57" vertex="1">
                    <mxGeometry x="10" y="50" width="120" height="30" as="geometry"/>
                </mxCell>
                <mxCell id="FFoYVPtMntlqUQjsiF4P-42" value="&lt;font style=&quot;font-size: 14px;&quot;&gt;Settings&lt;/font&gt;" style="text;html=1;align=left;verticalAlign=middle;whiteSpace=wrap;rounded=0;" parent="FFoYVPtMntlqUQjsiF4P-57" vertex="1">
                    <mxGeometry x="10" y="80" width="120" height="30" as="geometry"/>
                </mxCell>
                <mxCell id="FFoYVPtMntlqUQjsiF4P-44" value="&lt;font style=&quot;font-size: 14px;&quot;&gt;Complete Access&lt;/font&gt;" style="text;html=1;align=left;verticalAlign=middle;whiteSpace=wrap;rounded=0;" parent="FFoYVPtMntlqUQjsiF4P-57" vertex="1">
                    <mxGeometry x="10" y="110" width="120" height="30" as="geometry"/>
                </mxCell>
                <mxCell id="FFoYVPtMntlqUQjsiF4P-46" value="&lt;font style=&quot;font-size: 14px;&quot;&gt;First level user access&lt;/font&gt;" style="text;html=1;align=left;verticalAlign=middle;whiteSpace=wrap;rounded=0;" parent="FFoYVPtMntlqUQjsiF4P-57" vertex="1">
                    <mxGeometry x="30" y="148" width="160" height="30" as="geometry"/>
                </mxCell>
                <mxCell id="FFoYVPtMntlqUQjsiF4P-48" value="&lt;font style=&quot;font-size: 14px;&quot;&gt;Second level &quot;Org&quot; access&lt;/font&gt;" style="text;html=1;align=left;verticalAlign=middle;whiteSpace=wrap;rounded=0;" parent="FFoYVPtMntlqUQjsiF4P-57" vertex="1">
                    <mxGeometry x="30" y="178" width="190" height="30" as="geometry"/>
                </mxCell>
                <mxCell id="FFoYVPtMntlqUQjsiF4P-50" value="&lt;font style=&quot;font-size: 14px;&quot;&gt;No access to third level employee management&lt;/font&gt;" style="text;html=1;align=left;verticalAlign=middle;whiteSpace=wrap;rounded=0;" parent="FFoYVPtMntlqUQjsiF4P-57" vertex="1">
                    <mxGeometry x="30" y="210" width="230" height="30" as="geometry"/>
                </mxCell>
                <mxCell id="FFoYVPtMntlqUQjsiF4P-58" value="" style="group" parent="1" vertex="1" connectable="0">
                    <mxGeometry x="920" y="420" width="290" height="260" as="geometry"/>
                </mxCell>
                <mxCell id="FFoYVPtMntlqUQjsiF4P-59" value="" style="whiteSpace=wrap;html=1;" parent="FFoYVPtMntlqUQjsiF4P-58" vertex="1">
                    <mxGeometry width="290" height="260" as="geometry"/>
                </mxCell>
                <mxCell id="FFoYVPtMntlqUQjsiF4P-60" value="&lt;font style=&quot;font-size: 18px;&quot;&gt;Admin Role&lt;/font&gt;" style="text;html=1;align=center;verticalAlign=middle;whiteSpace=wrap;rounded=0;labelBackgroundColor=none;" parent="FFoYVPtMntlqUQjsiF4P-58" vertex="1">
                    <mxGeometry x="10" y="8" width="270" height="30" as="geometry"/>
                </mxCell>
                <mxCell id="FFoYVPtMntlqUQjsiF4P-61" value="&lt;font style=&quot;font-size: 14px;&quot;&gt;Analytics&lt;/font&gt;" style="text;html=1;align=left;verticalAlign=middle;whiteSpace=wrap;rounded=0;" parent="FFoYVPtMntlqUQjsiF4P-58" vertex="1">
                    <mxGeometry x="10" y="50" width="120" height="30" as="geometry"/>
                </mxCell>
                <mxCell id="FFoYVPtMntlqUQjsiF4P-62" value="&lt;font style=&quot;font-size: 14px;&quot;&gt;Settings&lt;/font&gt;" style="text;html=1;align=left;verticalAlign=middle;whiteSpace=wrap;rounded=0;" parent="FFoYVPtMntlqUQjsiF4P-58" vertex="1">
                    <mxGeometry x="10" y="80" width="120" height="30" as="geometry"/>
                </mxCell>
                <mxCell id="FFoYVPtMntlqUQjsiF4P-63" value="&lt;font style=&quot;font-size: 14px;&quot;&gt;Complete Access&lt;/font&gt;" style="text;html=1;align=left;verticalAlign=middle;whiteSpace=wrap;rounded=0;" parent="FFoYVPtMntlqUQjsiF4P-58" vertex="1">
                    <mxGeometry x="10" y="110" width="120" height="30" as="geometry"/>
                </mxCell>
                <mxCell id="FFoYVPtMntlqUQjsiF4P-64" value="&lt;font style=&quot;font-size: 14px;&quot;&gt;First level user access&lt;/font&gt;" style="text;html=1;align=left;verticalAlign=middle;whiteSpace=wrap;rounded=0;" parent="FFoYVPtMntlqUQjsiF4P-58" vertex="1">
                    <mxGeometry x="30" y="148" width="160" height="30" as="geometry"/>
                </mxCell>
                <mxCell id="FFoYVPtMntlqUQjsiF4P-65" value="&lt;font style=&quot;font-size: 14px;&quot;&gt;Second level &quot;Org&quot; access&lt;/font&gt;" style="text;html=1;align=left;verticalAlign=middle;whiteSpace=wrap;rounded=0;" parent="FFoYVPtMntlqUQjsiF4P-58" vertex="1">
                    <mxGeometry x="30" y="178" width="190" height="30" as="geometry"/>
                </mxCell>
                <mxCell id="FFoYVPtMntlqUQjsiF4P-66" value="&lt;font style=&quot;font-size: 14px;&quot;&gt;No access to third level employee management&lt;/font&gt;" style="text;html=1;align=left;verticalAlign=middle;whiteSpace=wrap;rounded=0;" parent="FFoYVPtMntlqUQjsiF4P-58" vertex="1">
                    <mxGeometry x="30" y="210" width="230" height="30" as="geometry"/>
                </mxCell>
                <mxCell id="FFoYVPtMntlqUQjsiF4P-68" value="" style="group;fillColor=#d5e8d4;strokeColor=#82b366;" parent="1" vertex="1" connectable="0">
                    <mxGeometry x="920" y="760" width="290" height="260" as="geometry"/>
                </mxCell>
                <mxCell id="FFoYVPtMntlqUQjsiF4P-69" value="" style="whiteSpace=wrap;html=1;fillColor=#B3FF66;" parent="FFoYVPtMntlqUQjsiF4P-68" vertex="1">
                    <mxGeometry width="290" height="260" as="geometry"/>
                </mxCell>
                <mxCell id="FFoYVPtMntlqUQjsiF4P-70" value="&lt;font style=&quot;font-size: 18px;&quot;&gt;Orgaization Role&lt;/font&gt;" style="text;html=1;align=center;verticalAlign=middle;whiteSpace=wrap;rounded=0;labelBackgroundColor=none;" parent="FFoYVPtMntlqUQjsiF4P-68" vertex="1">
                    <mxGeometry x="10" y="8" width="270" height="30" as="geometry"/>
                </mxCell>
                <mxCell id="FFoYVPtMntlqUQjsiF4P-71" value="&lt;font style=&quot;font-size: 14px;&quot;&gt;Analytics&lt;/font&gt;" style="text;html=1;align=left;verticalAlign=middle;whiteSpace=wrap;rounded=0;" parent="FFoYVPtMntlqUQjsiF4P-68" vertex="1">
                    <mxGeometry x="10" y="50" width="120" height="30" as="geometry"/>
                </mxCell>
                <mxCell id="FFoYVPtMntlqUQjsiF4P-72" value="&lt;font style=&quot;font-size: 14px;&quot;&gt;Settings&lt;/font&gt;" style="text;html=1;align=left;verticalAlign=middle;whiteSpace=wrap;rounded=0;" parent="FFoYVPtMntlqUQjsiF4P-68" vertex="1">
                    <mxGeometry x="10" y="80" width="120" height="30" as="geometry"/>
                </mxCell>
                <mxCell id="FFoYVPtMntlqUQjsiF4P-73" value="&lt;font style=&quot;font-size: 14px;&quot;&gt;Complete Access&lt;/font&gt;" style="text;html=1;align=left;verticalAlign=middle;whiteSpace=wrap;rounded=0;" parent="FFoYVPtMntlqUQjsiF4P-68" vertex="1">
                    <mxGeometry x="10" y="110" width="120" height="30" as="geometry"/>
                </mxCell>
                <mxCell id="FFoYVPtMntlqUQjsiF4P-74" value="&lt;font style=&quot;font-size: 14px;&quot;&gt;First level user access&lt;/font&gt;" style="text;html=1;align=left;verticalAlign=middle;whiteSpace=wrap;rounded=0;" parent="FFoYVPtMntlqUQjsiF4P-68" vertex="1">
                    <mxGeometry x="30" y="148" width="160" height="30" as="geometry"/>
                </mxCell>
                <mxCell id="FFoYVPtMntlqUQjsiF4P-75" value="&lt;font style=&quot;font-size: 14px;&quot;&gt;Second level &quot;Org&quot; access&lt;/font&gt;" style="text;html=1;align=left;verticalAlign=middle;whiteSpace=wrap;rounded=0;" parent="FFoYVPtMntlqUQjsiF4P-68" vertex="1">
                    <mxGeometry x="30" y="178" width="190" height="30" as="geometry"/>
                </mxCell>
                <mxCell id="FFoYVPtMntlqUQjsiF4P-76" value="&lt;font style=&quot;font-size: 14px;&quot;&gt;No access to third level employee management&lt;/font&gt;" style="text;html=1;align=left;verticalAlign=middle;whiteSpace=wrap;rounded=0;" parent="FFoYVPtMntlqUQjsiF4P-68" vertex="1">
                    <mxGeometry x="30" y="210" width="230" height="30" as="geometry"/>
                </mxCell>
            </root>
        </mxGraphModel>
    </diagram>
</mxfile>